<svg xmlns="http://www.w3.org/2000/svg" preserveAspectRatio="xMidYMid meet" version="1.0" viewBox="0 0 90 92.25" zoomAndPan="magnify"><defs><clipPath id="a"><path d="M23.57 46h66.067v45.508H23.57Zm0 0" clip-rule="nonzero"/></clipPath><clipPath id="b"><path d="M33 54h56.637v37.508H33Zm0 0" clip-rule="nonzero"/></clipPath><clipPath id="c"><path d="M41 62h48.637v29.508H41Zm0 0" clip-rule="nonzero"/></clipPath><clipPath id="d"><path d="M49 69h40.637v22.508H49Zm0 0" clip-rule="nonzero"/></clipPath></defs><g clip-path="url(#a)"><path d="M90.543 47.2c-9.137-.966-18.125-1.446-27.121-.872-5.36.344-10.73.887-16.035 1.75-7.157 1.16-12.547 5.172-16.38 11.293-3.417 5.453-5.3 11.461-6.44 17.75-.755 4.137-.954 8.3-.813 12.488.031 1.004.207 2.016.43 2.996.16.704.738 1.016 1.464.86.66-.145.918-.637.918-1.27-.003-.379-.07-.757-.105-1.136-.77-9.16.894-17.899 4.57-26.282.176-.406.39-.797.582-1.199C35.57 55.43 42.098 51.055 51.074 49.98a173.382 173.382 0 0 1 29.207-1.039c5.367.262 10.715.922 16.082 1.258 2.84.176 5.703.114 8.551.02 1.953-.063 3.902-.356 5.852-.578.43-.047.894-.145 1.254-.368.785-.492.734-1.617-.114-2-.43-.195-.992-.253-1.469-.187-5.804.832-11.617.762-17.44.285-.759-.062-1.52-.098-2.454-.172Zm0 0" fill="#0f5f53" fill-opacity="1" fill-rule="nonzero"/></g><g clip-path="url(#b)"><path d="M39.145 65.754c-2.598 3.61-3.555 7.68-4.286 11.812-.875 4.938-1.175 9.93-1.105 14.946.023 1.687.367 2.347 1.258 2.367.906.023 1.304-.668 1.304-2.313a96.347 96.347 0 0 1 1.352-16.062c1.754-10.309 8.516-15.54 17.953-18.125 3.625-.992 7.379-1.266 11.117-1.195 7.407.136 14.809.543 22.219.66 5.887.093 11.781-.078 17.672-.137a74.6 74.6 0 0 0 2.473-.059c.503-.02 1.015-.05 1.511-.144.7-.129 1.164-.54 1.125-1.297-.035-.754-.539-1.145-1.242-1.187-.691-.043-1.39.05-2.09.054-6.777.063-13.566.356-20.336.11-7.855-.286-15.699-.79-23.558-.532-5.024.164-9.98.813-14.63 2.91-4.171 1.88-7.788 4.485-10.737 8.192Zm0 0" fill="#e18891" fill-opacity="1" fill-rule="nonzero"/></g><g clip-path="url(#c)"><path d="M68.04 65.27c8.48 0 16.78-.043 25.077.02 5.192.038 10.383.233 15.574.358.254.004.504-.003.758.008.813.047 1.567-.043 1.754-1.023.137-.742-.535-1.418-1.566-1.567-.496-.07-1.012-.035-1.52-.039-2.847-.027-5.699-.035-8.55-.078-8.868-.136-17.739-.324-26.606-.414-4.055-.043-8.102.23-12.074 1.149a32.546 32.546 0 0 0-10.762 4.629c-3.008 2-5.098 4.687-6.207 8.148-1.402 4.379-1.98 8.883-2.16 13.45a6.26 6.26 0 0 0 .168 1.687c.164.683.617 1.12 1.375 1.039.773-.082 1.035-.614 1.07-1.328.102-1.957.059-3.938.356-5.864.421-2.746.98-5.48 1.695-8.16.781-2.933 2.644-5.144 5.172-6.812 4.035-2.668 8.46-4.262 13.25-4.868a111.85 111.85 0 0 1 3.195-.335Zm0 0" fill="#7bcfb7" fill-opacity="1" fill-rule="nonzero"/></g><g clip-path="url(#d)"><path d="M74.504 72.117c5.75.055 11.32.125 16.89.156 1.516.008 3.036-.14 4.551-.148 4.813-.023 9.625-.008 14.438-.02 1.558-.003 2.18-.343 2.246-1.171.078-.926-.668-1.457-2.23-1.442-5.442.051-10.887.2-16.333.2-4.812-.004-9.62-.16-14.433-.239-5.723-.094-11.363.543-16.95 1.793-4.285.957-7.445 3.387-9.574 7.164-1.59 2.82-3.078 5.703-3.609 8.934-.223 1.355-.145 2.77-.133 4.156.008.836.371 1.496 1.348 1.492.777-.004 1.328-.594 1.215-1.594-.524-4.593 1.586-8.375 3.718-12.12 1.602-2.821 4.02-4.77 7.258-5.368 3.785-.703 7.61-1.203 11.598-1.793Zm0 0" fill="#397362" fill-opacity="1" fill-rule="nonzero"/></g></svg>