<svg xmlns="http://www.w3.org/2000/svg" preserveAspectRatio="xMidYMid meet" version="1.0" viewBox="0 0 90 92.25" zoomAndPan="magnify"><defs><clipPath id="a"><path d="M.363 60h62.79v31.508H.362Zm0 0" clip-rule="nonzero"/></clipPath><clipPath id="b"><path d="M.363 45H8v34H.363Zm0 0" clip-rule="nonzero"/></clipPath><clipPath id="c"><path d="M.363 45H43v46.508H.363Zm0 0" clip-rule="nonzero"/></clipPath></defs><g clip-path="url(#a)"><path d="M63.086 91.914a31.885 31.885 0 0 1-.606 6.191 32.188 32.188 0 0 1-1.804 5.95c-.399.96-.844 1.898-1.332 2.816a32.313 32.313 0 0 1-1.598 2.668 31.415 31.415 0 0 1-3.945 4.809 31.03 31.03 0 0 1-2.305 2.09 31.288 31.288 0 0 1-5.168 3.457c-.914.488-1.851.933-2.812 1.332a31.828 31.828 0 0 1-12.13 2.414 31.805 31.805 0 0 1-6.187-.61 32.11 32.11 0 0 1-5.945-1.804 31.898 31.898 0 0 1-5.48-2.934 31.35 31.35 0 0 1-2.5-1.856 30.716 30.716 0 0 1-2.305-2.09 31.414 31.414 0 0 1-3.945-4.809 32.313 32.313 0 0 1-1.598-2.667 32.507 32.507 0 0 1-1.332-2.816 31.828 31.828 0 0 1-1.801-5.95 31.609 31.609 0 0 1-.61-6.19 31.805 31.805 0 0 1 1.364-9.208 31.477 31.477 0 0 1 2.379-5.746 32.312 32.312 0 0 1 1.597-2.668 31.414 31.414 0 0 1 3.946-4.809 31.444 31.444 0 0 1 4.804-3.945 31.898 31.898 0 0 1 5.48-2.934 31.828 31.828 0 0 1 12.134-2.414 31.726 31.726 0 0 1 6.183.61 31.828 31.828 0 0 1 5.945 1.805A31.898 31.898 0 0 1 49 65.538a31.288 31.288 0 0 1 2.496 1.856c.805.656 1.57 1.355 2.305 2.09a31.501 31.501 0 0 1 3.945 4.808c.574.863 1.11 1.754 1.598 2.668.488.918.933 1.855 1.332 2.816a31.828 31.828 0 0 1 1.804 5.95 31.805 31.805 0 0 1 .605 6.188Zm0 0" fill="#e18891" fill-opacity="1" fill-rule="nonzero"/></g><g clip-path="url(#b)"><path d="M7.191 62.313c0 .539-.027 1.078-.078 1.613a16.702 16.702 0 0 1-.637 3.168 16.663 16.663 0 0 1-1.246 2.98 16.82 16.82 0 0 1-.84 1.387c-.304.45-.628.879-.972 1.297-.344.418-.711.816-1.098 1.199a15.89 15.89 0 0 1-1.207 1.082c-.422.344-.86.664-1.308.965a17.378 17.378 0 0 1-2.875 1.52c-.504.206-1.016.386-1.54.542a15.6 15.6 0 0 1-1.581.395c-.532.105-1.07.184-1.614.238-.543.051-1.086.078-1.629.078-.543 0-1.09-.027-1.629-.078a17.075 17.075 0 0 1-1.613-.238 15.937 15.937 0 0 1-1.586-.395 16.66 16.66 0 0 1-6.93-4.109 16.72 16.72 0 0 1-2.906-3.883 16.663 16.663 0 0 1-1.246-2.98 16.702 16.702 0 0 1-.636-3.168 17.09 17.09 0 0 1-.079-1.614 15.935 15.935 0 0 1 .32-3.21 16.94 16.94 0 0 1 .395-1.567 16.493 16.493 0 0 1 1.246-2.98c.258-.477.54-.938.84-1.387a16.72 16.72 0 0 1 2.066-2.496c.387-.379.79-.742 1.212-1.086a16.342 16.342 0 0 1 4.184-2.48 16.276 16.276 0 0 1 1.534-.547 17.075 17.075 0 0 1 3.2-.63c.539-.05 1.085-.077 1.628-.077.543 0 1.086.027 1.63.078a17.074 17.074 0 0 1 3.195.629c.523.156 1.035.34 1.539.546a16.343 16.343 0 0 1 2.875 1.52c.449.3.886.621 1.308.96a16.824 16.824 0 0 1 2.305 2.286c.344.414.668.848.973 1.297.3.45.582.91.84 1.387a16.59 16.59 0 0 1 1.246 2.98 16.702 16.702 0 0 1 .636 3.164c.051.54.078 1.074.078 1.614Zm0 0" fill="#7bcfb7" fill-opacity="1" fill-rule="nonzero"/></g><g clip-path="url(#c)"><path d="M-4.465 71.617c.934-1.336 1.844-2.629 2.996-3.687.735-.672 1.567-1.246 2.57-1.66 4.044-1.684 8.079-1.02 10.907 1.164 2.828 2.187 4.43 5.894 3.617 10.257-1.281 6.88-7.39 11.024-13.66 11.676-6.293.649-12.777-2.234-14.676-9.5-1.5-5.754.59-11.422 4.406-15.789 3.801-4.348 9.325-7.418 14.785-7.98 5.188-.532 10.122.691 14.172 3.273 4.075 2.59 7.262 6.543 8.942 11.453 4.144 12.098-2.48 23.336-12.254 29.16-9.774 5.817-22.735 6.243-31.317-3.421-9.773-10.985-6.554-26.133 2.211-36.797 8.75-10.649 23.078-16.891 35.801-10.028 2.313 1.25 4.387 2.89 6.23 4.774 1.852 1.894 3.47 4.031 4.856 6.254a42.128 42.128 0 0 1 4.004 8.289c1.02 2.898 1.695 5.91 1.938 8.972.156 1.922.16 3.868-.008 5.801a30.117 30.117 0 0 1-1.02 5.695c-3.805 13.485-15.222 20.836-27.472 22.032-12.25 1.195-25.344-3.754-32.575-14.903a.335.335 0 0 0-.465-.097.338.338 0 0 0-.101.465c7.34 11.425 20.695 16.543 33.223 15.378 12.62-1.175 24.382-8.726 28.363-22.597a31.458 31.458 0 0 0 1.074-5.883c.18-1.988.18-3.996.031-5.969-.242-3.156-.922-6.261-1.96-9.254a43.559 43.559 0 0 0-4.079-8.52c-1.422-2.296-3.082-4.507-4.988-6.464-1.918-1.973-4.078-3.695-6.492-5.008-13.235-7.195-28.223-.844-37.367 10.234C-21.977 70.082-25.211 85.953-15 97.47c9.059 10.195 22.73 9.828 33.035 3.68 10.281-6.141 17.176-18.016 12.793-30.75-1.789-5.192-5.176-9.372-9.492-12.102-4.29-2.719-9.504-4.012-14.984-3.434-5.754.606-11.57 3.832-15.563 8.426-4.062 4.672-6.234 10.738-4.613 16.875 2.078 7.867 9.086 11.02 15.902 10.293 6.711-.715 13.219-5.203 14.567-12.578.878-4.793-.915-8.848-4.028-11.234C9.531 64.27 5.133 63.53.73 65.383a9.641 9.641 0 0 0-2.84 1.847c-1.199 1.106-2.152 2.461-3.12 3.852a.473.473 0 0 0 .117.652.464.464 0 0 0 .648-.117Zm0 0" fill="#0f5f53" fill-opacity="1" fill-rule="evenodd"/></g></svg>