<svg xmlns="http://www.w3.org/2000/svg" preserveAspectRatio="xMidYMid meet" version="1.0" viewBox="0 0 31.5 31.5" zoomAndPan="magnify"><defs><clipPath id="a"><path d="M0 0h31.008v31.008H0Zm0 0" clip-rule="nonzero"/></clipPath><clipPath id="b"><path d="M15.504 0C6.94 0 0 6.941 0 15.504c0 8.562 6.941 15.504 15.504 15.504 8.562 0 15.504-6.942 15.504-15.504C31.008 6.94 24.066 0 15.504 0Zm0 0" clip-rule="nonzero"/></clipPath><clipPath id="c"><path d="M12.727 12.727h5.554v5.554h-5.554Zm0 0" clip-rule="nonzero"/></clipPath><clipPath id="d"><path d="M15.504 12.727a2.776 2.776 0 0 0-2.777 2.777 2.776 2.776 0 0 0 2.777 2.777 2.776 2.776 0 0 0 2.777-2.777 2.776 2.776 0 0 0-2.777-2.777Zm0 0" clip-rule="nonzero"/></clipPath></defs><g clip-path="url(#a)"><g clip-path="url(#b)"><path d="M0 0h31.008v31.008H0Zm0 0" fill="#397362" fill-opacity="1" fill-rule="nonzero"/></g></g><g clip-path="url(#c)"><g clip-path="url(#d)"><path d="M12.727 12.727h5.554v5.554h-5.554Zm0 0" fill="#e18891" fill-opacity="1" fill-rule="nonzero"/></g></g><path d="m10.39 25.373.829-1.5.39.22-.828 1.5.032 2.812-.47-.25-.03-2.641a9.416 9.416 0 0 0-1.047.734 8.1 8.1 0 0 0-.875.813l-.407-.219ZM4.96 23.72a2.253 2.253 0 0 1-.297-.734 1.82 1.82 0 0 1 .015-.781 2.076 2.076 0 0 1 1.656-1.625 1.82 1.82 0 0 1 .782-.016c.261.055.507.152.734.297.23.137.418.32.563.547.156.23.261.48.312.75a2.101 2.101 0 0 1-.312 1.5 2.095 2.095 0 0 1-.594.578c-.25.164-.504.273-.766.328-.258.05-.52.05-.781 0a1.845 1.845 0 0 1-.734-.281 2.085 2.085 0 0 1-.579-.563Zm.062-.031c.125.176.289.312.484.406.188.094.399.149.625.172.23.02.47-.008.72-.078.25-.063.491-.172.718-.328.23-.156.422-.34.578-.547.148-.2.258-.406.328-.625a1.68 1.68 0 0 0 .094-.64 1.208 1.208 0 0 0-.219-.594 1.106 1.106 0 0 0-.469-.407 1.766 1.766 0 0 0-.64-.187 1.92 1.92 0 0 0-.703.078 2.705 2.705 0 0 0-1.281.875c-.165.2-.286.406-.36.625-.07.219-.098.437-.078.656.023.219.09.414.203.594ZM2.617 16.92l-.062-.469 4.125-.453.062.469-.75.078c.168.125.32.277.454.453.125.18.23.367.312.563.086.199.137.375.156.53.043.387-.004.68-.14.876-.145.199-.41.316-.797.36l-3.063.343-.047-.453 3.063-.344c.242-.02.422-.078.547-.172a.713.713 0 0 0 .25-.375 1.002 1.002 0 0 0-.016-.469 1.94 1.94 0 0 0-.25-.625 2.364 2.364 0 0 0-.469-.562.395.395 0 0 0-.296-.094Zm1.657-6.86 4.532.516-.25.437-1.672-.187c.164.105.312.23.437.375.125.148.219.308.281.484.063.18.082.36.063.547a1.322 1.322 0 0 1-.188.578c-.125.211-.277.36-.453.453a.969.969 0 0 1-.547.125 1.085 1.085 0 0 1-.593-.265 1.364 1.364 0 0 1-.375-.36 3.442 3.442 0 0 1-.266-.437 12.41 12.41 0 0 0-.25-.453 5.691 5.691 0 0 0-.25-.532c-.082-.156-.18-.3-.297-.437a4.501 4.501 0 0 0-.437-.406Zm2.297.719-2.406-.266c.187.149.351.32.484.516.125.187.246.383.36.578.093.149.187.297.28.453.095.156.204.309.329.453.125.149.273.25.438.313.168.074.335.105.5.094a.774.774 0 0 0 .453-.172c.132-.114.238-.27.312-.469a.786.786 0 0 0 .063-.438 1.806 1.806 0 0 0-.141-.484 1.269 1.269 0 0 0-.281-.39.747.747 0 0 0-.39-.188Zm.191-4.018 1.672-1.109c.168-.113.352-.18.547-.203a.957.957 0 0 1 .531.094c.176.074.329.203.454.39a1 1 0 0 1 .187.594 1.133 1.133 0 0 1-.187.547 1.79 1.79 0 0 1-.438.437.74.74 0 0 1 .281.032c.188.062.364.148.532.25.164.093.332.195.5.297.164.105.32.195.468.265.051.012.118.031.203.063a.592.592 0 0 0 .204.047l-.36.234a.251.251 0 0 1-.156.062.33.33 0 0 1-.14-.03 16.61 16.61 0 0 1-.75-.407 5.641 5.641 0 0 0-.75-.39c-.387-.188-.641-.083-.766.312H8.73a.905.905 0 0 1 .14-.328 1.16 1.16 0 0 1 .22-.219c.093-.063.187-.129.28-.203.25-.176.384-.38.407-.61a1.074 1.074 0 0 0-.203-.703 1.054 1.054 0 0 0-.422-.359.866.866 0 0 0-.469-.078.999.999 0 0 0-.468.156l-1.032.688 2.25 3.39-.375.25Zm6.849-3.02c.156-.02.305-.031.453-.031.145 0 .297.023.453.063.082.03.176.078.282.14.101.055.195.121.28.203a.416.416 0 0 1 .141.266.464.464 0 0 1-.078.344.494.494 0 0 1-.343.172.885.885 0 0 0-.282-.844 1.025 1.025 0 0 0-.406-.219.954.954 0 0 0-.484-.031c-.274.031-.512.14-.72.328a1.73 1.73 0 0 0-.483.687c-.106.274-.153.57-.141.891a.628.628 0 0 1 .25-.234.76.76 0 0 1 .328-.11c.133-.02.27-.015.406.016.133.031.266.07.39.11.134.03.274.042.423.03a.665.665 0 0 0 .281-.062c.094-.039.145-.113.156-.219.063.149.07.278.032.39a.508.508 0 0 1-.22.267.792.792 0 0 1-.405.093 1.384 1.384 0 0 1-.36-.078c-.117-.039-.23-.082-.344-.125a1.748 1.748 0 0 0-.343-.11.795.795 0 0 0-.297-.03c-.219.03-.313.152-.281.359.062.375.187.71.375 1 .195.293.437.5.718.625.22.105.43.152.64.14a1.43 1.43 0 0 0 .595-.156 1.93 1.93 0 0 0 .515-.375 2.88 2.88 0 0 0 .407-.515l.062.453a1.93 1.93 0 0 1-.625.437c-.25.117-.516.196-.797.235a2.22 2.22 0 0 1-1.547-.406 1.877 1.877 0 0 1-.515-.579 2.11 2.11 0 0 1-.235-1.61c.075-.269.188-.515.344-.733.156-.22.348-.391.578-.516.238-.133.504-.223.797-.266Zm4.319 4.397 1.484-3.875.422.156-1.484 3.875Zm3.774 2.278-.063-.047c.114-.137.196-.328.25-.578.051-.25.082-.531.094-.844.02-.312.023-.64.016-.984a16.158 16.158 0 0 0-.063-1 76.057 76.057 0 0 0-.094-.938c-.03-.3-.058-.554-.078-.765-.293.398-.547.75-.765 1.062-.22.305-.414.59-.578.86-.168.261-.32.515-.454.765-.136.242-.28.489-.437.75l-.36-.28 2.579-3.267.484.375c.04.407.082.82.125 1.235.04.418.07.844.094 1.281.02.426.015.844-.016 1.25.227-.312.422-.605.578-.875.164-.258.317-.516.453-.766.145-.257.297-.52.454-.78l.359.28Zm4.43-1.028-2.969 3.031a47.912 47.912 0 0 0 1.984-.359 19.875 19.875 0 0 0 2.063-.516l.203.407-4.36.578-.218-.438 3.078-3.14Zm-2.385 5.029 4.093-.672.079.453-4.094.672Zm4.044 4.995-.453-.063c.07-.125.144-.25.218-.375.082-.125.149-.262.203-.406a2.79 2.79 0 0 0 .157-.547l-4.032-.563.063-.453 4.031.563c.02-.219.02-.406 0-.563a2.125 2.125 0 0 0-.078-.437 4.761 4.761 0 0 1-.11-.422l.454.062Zm-1.889 4.083c-.086.133-.18.254-.281.36a2.693 2.693 0 0 1-.344.28 1.224 1.224 0 0 1-.297.126c-.117.039-.23.062-.344.062a.456.456 0 0 1-.28-.062.43.43 0 0 1-.188-.297c-.024-.117.008-.235.093-.36a.85.85 0 0 0 .36.282c.144.062.289.082.437.062a1.18 1.18 0 0 0 .782-.5 1.26 1.26 0 0 0 .234-.75 1.782 1.782 0 0 0-.172-.812 2.074 2.074 0 0 0-.562-.703.574.574 0 0 1 .015.343.913.913 0 0 1-.156.328.965.965 0 0 1-.281.282c-.106.082-.219.16-.344.234a.855.855 0 0 0-.297.266.685.685 0 0 0-.156.25c-.031.101-.008.195.078.28a.657.657 0 0 1-.328-.25.516.516 0 0 1-.047-.343c.031-.117.094-.234.187-.36a1.76 1.76 0 0 1 .297-.218c.114-.055.223-.11.328-.172.114-.055.22-.11.313-.172a.696.696 0 0 0 .234-.218c.125-.18.098-.325-.078-.438a2.506 2.506 0 0 0-1.015-.39 1.815 1.815 0 0 0-.938.109 1.49 1.49 0 0 0-.516.375 1.35 1.35 0 0 0-.296.562c-.051.207-.07.422-.063.64.012.22.055.43.125.642l-.39-.266c-.02-.242.011-.492.093-.75.086-.262.203-.512.36-.75a2.19 2.19 0 0 1 .593-.563c.22-.148.461-.25.72-.312a2.032 2.032 0 0 1 1.577.328c.239.156.43.348.578.578.145.227.243.473.297.735a1.7 1.7 0 0 1 0 .796c-.054.27-.164.524-.328.766Zm-2.538 2.96-1.297.734a1.87 1.87 0 0 1-.719.234c-.238.032-.477 0-.719-.093a2.006 2.006 0 0 1-.64-.407 2.984 2.984 0 0 1-.5-.64 2.832 2.832 0 0 1-.297-.781 1.612 1.612 0 0 1-.016-.735c.043-.242.137-.465.281-.672a1.56 1.56 0 0 1 .563-.515l1.297-.735Zm-.422.156-1.985-3.484-.593.343a1.45 1.45 0 0 0-.563.5 1.701 1.701 0 0 0-.234.657 1.87 1.87 0 0 0 .047.718c.054.239.148.473.28.703.126.22.278.414.454.594.18.176.375.313.594.406.219.094.441.133.672.125.238-.011.484-.086.734-.218Zm0 0" fill="#fff" fill-opacity="1"/></svg>