<svg xmlns="http://www.w3.org/2000/svg" preserveAspectRatio="xMidYMid meet" version="1.0" viewBox="0 0 90 92.25" zoomAndPan="magnify"><defs><clipPath id="a"><path d="M.363 0H76.54v45.703H.363Zm0 0" clip-rule="nonzero"/></clipPath><clipPath id="b"><path d="M.363 0H67v37H.363Zm0 0" clip-rule="nonzero"/></clipPath><clipPath id="c"><path d="M.363 0H59v29H.363Zm0 0" clip-rule="nonzero"/></clipPath><clipPath id="d"><path d="M.363 0H51v23H.363Zm0 0" clip-rule="nonzero"/></clipPath></defs><g clip-path="url(#a)"><path d="M9.566 44.305c9.137.968 18.125 1.449 27.121.87 5.364-.34 10.735-.886 16.036-1.745 7.156-1.164 12.55-5.172 16.382-11.293 3.415-5.453 5.297-11.461 6.442-17.75.75-4.137.95-8.305.808-12.489-.03-1.007-.203-2.015-.43-2.996-.16-.707-.734-1.02-1.464-.859-.656.14-.918.637-.914 1.27 0 .375.07.753.101 1.132.77 9.16-.89 17.899-4.566 26.285-.18.407-.39.797-.586 1.196-3.957 8.152-10.48 12.527-19.46 13.601a173.35 173.35 0 0 1-29.204 1.04c-5.367-.266-10.719-.922-16.086-1.258-2.84-.176-5.7-.118-8.547-.02-1.957.063-3.906.356-5.855.574-.426.051-.895.149-1.25.371-.79.493-.735 1.614.11 2 .433.196.991.254 1.468.184 5.805-.828 11.617-.758 17.441-.285.762.066 1.52.097 2.453.172Zm0 0" fill="#0f5f53" fill-opacity="1" fill-rule="nonzero"/></g><g clip-path="url(#b)"><path d="M60.965 25.75c2.601-3.605 3.555-7.676 4.289-11.809.875-4.937 1.172-9.93 1.101-14.945-.023-1.687-.367-2.351-1.253-2.371-.91-.02-1.309.672-1.309 2.313a95.98 95.98 0 0 1-1.352 16.066c-1.754 10.309-8.515 15.535-17.953 18.125-3.625.992-7.379 1.266-11.113 1.195-7.41-.136-14.813-.543-22.219-.66-5.89-.094-11.785.078-17.676.137-.824.008-1.648.02-2.468.054-.508.024-1.016.055-1.516.145-.7.129-1.16.543-1.125 1.297.035.758.54 1.148 1.242 1.191.696.04 1.395-.05 2.09-.058 6.781-.059 13.57-.352 20.34-.11 7.852.285 15.695.793 23.559.535 5.023-.164 9.976-.816 14.628-2.91 4.168-1.883 7.79-4.488 10.735-8.195Zm0 0" fill="#e18891" fill-opacity="1" fill-rule="nonzero"/></g><g clip-path="url(#c)"><path d="M32.07 26.238c-8.48 0-16.777.04-25.078-.023-5.191-.04-10.383-.23-15.57-.356-.254-.004-.508.004-.762-.011-.812-.043-1.566.047-1.75 1.027-.14.742.531 1.418 1.563 1.563.5.07 1.011.039 1.52.042 2.85.024 5.702.032 8.554.079 8.867.136 17.734.324 26.601.414 4.059.039 8.106-.235 12.079-1.153a32.48 32.48 0 0 0 10.757-4.629c3.012-2 5.098-4.687 6.207-8.148 1.407-4.375 1.98-8.879 2.164-13.45a6.307 6.307 0 0 0-.171-1.687c-.16-.68-.618-1.117-1.375-1.039-.77.086-1.032.617-1.07 1.328-.102 1.957-.06 3.938-.356 5.868a77.556 77.556 0 0 1-1.696 8.16c-.777 2.93-2.64 5.144-5.167 6.812-4.04 2.664-8.465 4.258-13.254 4.863a99.48 99.48 0 0 1-3.196.34Zm0 0" fill="#7bcfb7" fill-opacity="1" fill-rule="nonzero"/></g><g clip-path="url(#d)"><path d="M25.605 19.39c-5.75-.054-11.316-.124-16.886-.156-1.52-.011-3.04.141-4.555.149-4.812.02-9.625.004-14.437.015-1.559.004-2.176.348-2.247 1.176-.074.922.668 1.453 2.23 1.438 5.446-.051 10.892-.2 16.333-.196 4.812 0 9.625.157 14.437.235 5.72.094 11.364-.54 16.946-1.79 4.289-.956 7.445-3.386 9.574-7.167 1.59-2.817 3.078-5.703 3.61-8.93.222-1.36.148-2.77.132-4.156-.008-.836-.367-1.496-1.347-1.496-.774.004-1.329.597-1.215 1.597.523 4.594-1.582 8.375-3.715 12.118-1.606 2.82-4.024 4.77-7.258 5.37-3.789.704-7.613 1.204-11.602 1.794Zm0 0" fill="#397362" fill-opacity="1" fill-rule="nonzero"/></g></svg>