<svg xmlns="http://www.w3.org/2000/svg" preserveAspectRatio="xMidYMid meet" version="1.0" viewBox="0 0 90 92.25" zoomAndPan="magnify"><defs><clipPath id="a"><path d="M2.355 0H76v37H2.355Zm0 0" clip-rule="nonzero"/></clipPath><clipPath id="b"><path d="M67 15h22.637v39H67Zm0 0" clip-rule="nonzero"/></clipPath><clipPath id="c"><path d="M26 0h63.637v54H26Zm0 0" clip-rule="nonzero"/></clipPath></defs><g clip-path="url(#a)"><path d="M2.434-.188a36.593 36.593 0 0 1 2.793-14.05 35.42 35.42 0 0 1 1.539-3.258 36.361 36.361 0 0 1 3.996-5.984 36.385 36.385 0 0 1 5.086-5.09c.93-.766 1.894-1.48 2.89-2.149a36.914 36.914 0 0 1 6.344-3.394 37.651 37.651 0 0 1 3.39-1.211 36.005 36.005 0 0 1 3.497-.875 36.35 36.35 0 0 1 7.156-.707 36.617 36.617 0 0 1 10.652 1.582c1.149.347 2.278.754 3.391 1.21a36.952 36.952 0 0 1 6.344 3.395c.996.668 1.96 1.383 2.89 2.149a36.385 36.385 0 0 1 5.086 5.09 36.361 36.361 0 0 1 3.996 5.984 35.839 35.839 0 0 1 1.54 3.254c.46 1.113.867 2.242 1.214 3.394a36.593 36.593 0 0 1 1.578 10.66 36.91 36.91 0 0 1-.703 7.16 36.875 36.875 0 0 1-2.09 6.891 36.412 36.412 0 0 1-3.39 6.348c-.668 1-1.383 1.965-2.145 2.894a36.327 36.327 0 0 1-2.418 2.668 36.462 36.462 0 0 1-8.648 6.418 36.952 36.952 0 0 1-3.254 1.543 37.422 37.422 0 0 1-6.883 2.09 36.593 36.593 0 0 1-7.16.703 36.85 36.85 0 0 1-7.156-.703 37.194 37.194 0 0 1-6.887-2.09 36.952 36.952 0 0 1-9.234-5.539 37.285 37.285 0 0 1-2.668-2.422 36.327 36.327 0 0 1-4.563-5.562 36.412 36.412 0 0 1-3.39-6.348A36.875 36.875 0 0 1 2.61 3.41a36.91 36.91 0 0 1-.176-3.598Zm0 0" fill="#e18891" fill-opacity="1" fill-rule="nonzero"/></g><g clip-path="url(#b)"><path d="M67.125 34.07a18.676 18.676 0 0 1 .371-3.715c.125-.613.277-1.218.457-1.816a19.175 19.175 0 0 1 2.418-5.055c.348-.515.723-1.02 1.125-1.5.399-.484.82-.945 1.266-1.386a19.297 19.297 0 0 1 9.851-5.215 20.369 20.369 0 0 1 1.871-.274c.625-.062 1.254-.09 1.883-.09a19.103 19.103 0 0 1 3.754.364c.621.12 1.23.273 1.832.457a19.273 19.273 0 0 1 3.488 1.43 18.962 18.962 0 0 1 3.133 2.074 18.564 18.564 0 0 1 2.668 2.64c.403.48.778.985 1.125 1.5a18.665 18.665 0 0 1 1.778 3.297 19.233 19.233 0 0 1 1.097 3.574c.121.614.215 1.227.278 1.848.062.621.09 1.246.09 1.867a18.692 18.692 0 0 1-.368 3.72 18.938 18.938 0 0 1-.46 1.812 17.69 17.69 0 0 1-.637 1.761c-.239.578-.508 1.14-.805 1.692a18.02 18.02 0 0 1-.973 1.601 19.286 19.286 0 0 1-2.39 2.89c-.446.442-.915.86-1.403 1.255-.484.394-.992.77-1.515 1.113-.524.348-1.063.668-1.618.961a18.822 18.822 0 0 1-3.488 1.43 19.31 19.31 0 0 1-1.832.457c-.617.12-1.238.21-1.867.273-.625.063-1.254.09-1.887.09a18.78 18.78 0 0 1-1.883-.09 20.177 20.177 0 0 1-1.87-.273 19.922 19.922 0 0 1-3.61-1.086 18.822 18.822 0 0 1-1.707-.801 18.742 18.742 0 0 1-1.617-.96 19.169 19.169 0 0 1-2.918-2.368 19.286 19.286 0 0 1-4.172-6.184 19.703 19.703 0 0 1-.637-1.761 20.16 20.16 0 0 1-.457-1.813 18.696 18.696 0 0 1-.371-3.719Zm0 0" fill="#7bcfb7" fill-opacity="1" fill-rule="nonzero"/></g><g clip-path="url(#c)"><path d="M80.617 23.305c-1.078 1.543-2.137 3.043-3.469 4.265-.851.778-1.812 1.442-2.972 1.926-4.68 1.945-9.352 1.18-12.625-1.351-3.274-2.532-5.125-6.82-4.188-11.872 1.485-7.96 8.559-12.757 15.813-13.511 7.285-.75 14.785 2.582 16.984 10.992 1.738 6.66-.68 13.219-5.097 18.273-4.399 5.035-10.793 8.59-17.114 9.239-6.004.617-11.71-.801-16.402-3.786-4.715-3-8.406-7.578-10.348-13.257-4.8-14 2.871-27.012 14.184-33.75 11.308-6.735 26.308-7.223 36.242 3.96 11.313 12.715 7.586 30.247-2.555 42.59C78.938 49.348 62.36 56.57 47.633 48.63c-2.676-1.445-5.078-3.348-7.211-5.527-2.145-2.192-4.016-4.664-5.617-7.239a48.558 48.558 0 0 1-4.637-9.593c-1.18-3.352-1.961-6.84-2.246-10.387a40.955 40.955 0 0 1 .008-6.711 35.41 35.41 0 0 1 1.183-6.594c4.403-15.605 17.617-24.113 31.797-25.5 14.18-1.383 29.332 4.348 37.7 17.25.12.18.359.23.538.117a.396.396 0 0 0 .118-.543c-8.493-13.222-23.954-19.144-38.45-17.797-14.609 1.36-28.222 10.102-32.828 26.153a36.415 36.415 0 0 0-1.246 6.808 42.087 42.087 0 0 0-.031 6.91c.277 3.653 1.066 7.247 2.266 10.708a50.307 50.307 0 0 0 4.722 9.863c1.645 2.66 3.567 5.215 5.77 7.484 2.218 2.282 4.722 4.278 7.515 5.793 15.32 8.328 32.664.977 43.25-11.844 10.649-12.898 14.399-31.265 2.575-44.597-10.485-11.797-26.305-11.375-38.23-4.254C42.675-3.766 34.698 9.98 39.772 24.715c2.07 6.008 5.985 10.848 10.98 14.008 4.97 3.144 11 4.64 17.345 3.972 6.66-.699 13.394-4.437 18.015-9.754 4.7-5.402 7.215-12.425 5.336-19.527C89.043 4.31 80.934.66 73.047 1.5c-7.77.828-15.3 6.02-16.863 14.559-1.016 5.543 1.062 10.238 4.664 13.003 3.57 2.747 8.664 3.602 13.757 1.461 1.282-.539 2.348-1.277 3.29-2.14 1.386-1.281 2.488-2.848 3.609-4.461a.544.544 0 0 0-.137-.754.539.539 0 0 0-.75.137Zm0 0" fill="#0f5f53" fill-opacity="1" fill-rule="evenodd"/></g></svg>